{
  "accessors": [
    {
      "bufferView": 2,
      "componentType": 5126,
      "count": 18107,
      "max": [
        44.67599868774414,
        105.86720275878906,
        78.51860046386719
      ],
      "min": [
        -43.60810089111328,
        -19.49139976501465,
        -76.13929748535156
      ],
      "type": "VEC3"
    },
    {
      "bufferView": 2,
      "byteOffset": 217284,
      "componentType": 5126,
      "count": 18107,
      "max": [
        1.0,
        1.0,
        1.0
      ],
      "min": [
        -1.0,
        -1.0,
        -1.0
      ],
      "type": "VEC3"
    },
    {
      "bufferView": 3,
      "componentType": 5126,
      "count": 18107,
      "max": [
        1.0,
        1.0,
        1.0,
        1.0
      ],
      "min": [
        -1.0,
        -1.0,
        -1.0,
        -1.0
      ],
      "type": "VEC4"
    },
    {
      "bufferView": 1,
      "componentType": 5126,
      "count": 18107,
      "max": [
        0.995203971862793,
        0.9935910105705261
      ],
      "min": [
        0.0010649999603629112,
        0.0010649999603629112
      ],
      "type": "VEC2"
    },
    {
      "bufferView": 0,
      "componentType": 5125,
      "count": 89502,
      "type": "SCALAR"
    },
    {
      "bufferView": 2,
      "byteOffset": 434568,
      "componentType": 5126,
      "count": 1150,
      "max": [
        16.611099243164063,
        -20.039199829101563,
        7.825799942016602
      ],
      "min": [
        -3.3050999641418457,
        -20.46660041809082,
        -1.848099946975708
      ],
      "type": "VEC3"
    },
    {
      "bufferView": 2,
      "byteOffset": 448368,
      "componentType": 5126,
      "count": 1150,
      "max": [
        0.9948810935020447,
        1.0,
        0.9998207688331604
      ],
      "min": [
        -0.9948691129684448,
        -1.0,
        -0.9998775720596313
      ],
      "type": "VEC3"
    },
    {
      "bufferView": 3,
      "byteOffset": 289712,
      "componentType": 5126,
      "count": 1150,
      "max": [
        0.9999338984489441,
        0.9948559999465942,
        0.9999999403953552,
        1.0
      ],
      "min": [
        -0.9999943971633911,
        -0.9958217740058899,
        -0.9989634156227112,
        1.0
      ],
      "type": "VEC4"
    },
    {
      "bufferView": 1,
      "byteOffset": 144856,
      "componentType": 5126,
      "count": 1150,
      "max": [
        0.10954699665307999,
        0.8278509974479675
      ],
      "min": [
        0.0010649999603629112,
        0.09265200048685074
      ],
      "type": "VEC2"
    },
    {
      "bufferView": 0,
      "byteOffset": 358008,
      "componentType": 5125,
      "count": 6144,
      "type": "SCALAR"
    },
    {
      "bufferView": 2,
      "byteOffset": 462168,
      "componentType": 5126,
      "count": 787,
      "max": [
        3.0685999393463135,
        -19.118499755859375,
        11.59060001373291
      ],
      "min": [
        -8.479299545288086,
        -19.63909912109375,
        -3.0546000003814697
      ],
      "type": "VEC3"
    },
    {
      "bufferView": 2,
      "byteOffset": 471612,
      "componentType": 5126,
      "count": 787,
      "max": [
        0.9871199131011963,
        1.0,
        0.986497163772583
      ],
      "min": [
        -0.9870996475219727,
        -1.0,
        -0.9885241389274597
      ],
      "type": "VEC3"
    },
    {
      "bufferView": 3,
      "byteOffset": 308112,
      "componentType": 5126,
      "count": 787,
      "max": [
        0.9995764493942261,
        0.9887819290161133,
        0.9994785189628601,
        1.0
      ],
      "min": [
        -0.9996883869171143,
        -0.9907742738723755,
        -0.999793291091919,
        -1.0
      ],
      "type": "VEC4"
    },
    {
      "bufferView": 1,
      "byteOffset": 154056,
      "componentType": 5126,
      "count": 787,
      "max": [
        0.9948229789733887,
        0.8913480043411255
      ],
      "min": [
        0.015270999632775784,
        0.0010649999603629112
      ],
      "type": "VEC2"
    },
    {
      "bufferView": 0,
      "byteOffset": 382584,
      "componentType": 5125,
      "count": 4026,
      "type": "SCALAR"
    },
    {
      "bufferView": 2,
      "byteOffset": 481056,
      "componentType": 5126,
      "count": 258,
      "max": [
        33.886802673339844,
        -2.52138614654541,
        33.886802673339844
      ],
      "min": [
        -33.886802673339844,
        -4.6624956130981445,
        -33.886802673339844
      ],
      "type": "VEC3"
    },
    {
      "bufferView": 2,
      "byteOffset": 484152,
      "componentType": 5126,
      "count": 258,
      "max": [
        0.5301024913787842,
        -0.8189606070518494,
        0.5301023125648499
      ],
      "min": [
        -0.5301024317741394,
        -1.0,
        -0.530102550983429
      ],
      "type": "VEC3"
    },
    {
      "bufferView": 1,
      "byteOffset": 160352,
      "componentType": 5126,
      "count": 258,
      "max": [
        1.0,
        1.0
      ],
      "min": [
        0.0,
        0.0
      ],
      "type": "VEC2"
    },
    {
      "bufferView": 0,
      "byteOffset": 398688,
      "componentType": 5125,
      "count": 1152,
      "type": "SCALAR"
    },
    {
      "bufferView": 2,
      "byteOffset": 487248,
      "componentType": 5126,
      "count": 2000,
      "max": [
        39.331199645996094,
        -10.02810001373291,
        48.94269943237305
      ],
      "min": [
        -39.331199645996094,
        -17.70690155029297,
        -48.94269943237305
      ],
      "type": "VEC3"
    },
    {
      "bufferView": 2,
      "byteOffset": 511248,
      "componentType": 5126,
      "count": 2000,
      "max": [
        1.0,
        1.0,
        1.0
      ],
      "min": [
        -1.0,
        -0.9954320788383484,
        -1.0
      ],
      "type": "VEC3"
    },
    {
      "bufferView": 3,
      "byteOffset": 320704,
      "componentType": 5126,
      "count": 2000,
      "max": [
        1.0,
        0.9844590425491333,
        1.0,
        1.0
      ],
      "min": [
        -0.9999836683273315,
        -0.9261080026626587,
        -1.0,
        -1.0
      ],
      "type": "VEC4"
    },
    {
      "bufferView": 1,
      "byteOffset": 162416,
      "componentType": 5126,
      "count": 2000,
      "max": [
        0.92638099193573,
        0.9705439805984497
      ],
      "min": [
        0.0010649999603629112,
        0.0010649999603629112
      ],
      "type": "VEC2"
    },
    {
      "bufferView": 0,
      "byteOffset": 403296,
      "componentType": 5125,
      "count": 9792,
      "type": "SCALAR"
    },
    {
      "bufferView": 2,
      "byteOffset": 535248,
      "componentType": 5126,
      "count": 1313,
      "max": [
        39.30707550048828,
        -7.133671760559082,
        39.30707550048828
      ],
      "min": [
        -39.30707550048828,
        -10.40815258026123,
        -39.30707550048828
      ],
      "type": "VEC3"
    },
    {
      "bufferView": 2,
      "byteOffset": 551004,
      "componentType": 5126,
      "count": 1313,
      "max": [
        0.9788779020309448,
        1.0,
        0.9788781404495239
      ],
      "min": [
        -0.9788779020309448,
        -1.0,
        -0.9788780212402344
      ],
      "type": "VEC3"
    },
    {
      "bufferView": 3,
      "byteOffset": 352704,
      "componentType": 5126,
      "count": 1313,
      "max": [
        1.0,
        0.979993999004364,
        0.6547901034355164,
        1.0
      ],
      "min": [
        -0.5946058034896851,
        -0.9799945950508118,
        -0.6602616310119629,
        -1.0
      ],
      "type": "VEC4"
    },
    {
      "bufferView": 1,
      "byteOffset": 178416,
      "componentType": 5126,
      "count": 1313,
      "max": [
        0.1626390814781189,
        0.7750476598739624
      ],
      "min": [
        0.03706716373562813,
        0.6494757533073425
      ],
      "type": "VEC2"
    },
    {
      "bufferView": 0,
      "byteOffset": 442464,
      "componentType": 5125,
      "count": 7680,
      "type": "SCALAR"
    }
  ],
  "asset": {
    "extras": {
      "author": "ar-watches (https://sketchfab.com/ar-watches)",
      "license": "CC-BY-4.0 (http://creativecommons.org/licenses/by/4.0/)",
      "source": "https://sketchfab.com/3d-models/patek-philippe-two-crown-worldtime-8dcbe0f77aba4a58ada60048387b12c8",
      "title": "Patek Philippe Two-Crown Worldtime"
    },
    "generator": "Sketchfab-15.19.0",
    "version": "2.0"
  },
  "bufferViews": [
    {
      "buffer": 0,
      "byteLength": 473184,
      "name": "floatBufferViews",
      "target": 34963
    },
    {
      "buffer": 0,
      "byteLength": 188920,
      "byteOffset": 473184,
      "byteStride": 8,
      "name": "floatBufferViews",
      "target": 34962
    },
    {
      "buffer": 0,
      "byteLength": 566760,
      "byteOffset": 662104,
      "byteStride": 12,
      "name": "floatBufferViews",
      "target": 34962
    },
    {
      "buffer": 0,
      "byteLength": 373712,
      "byteOffset": 1228864,
      "byteStride": 16,
      "name": "floatBufferViews",
      "target": 34962
    }
  ],
  "buffers": [
    {
      "byteLength": 1602576,
      "uri": "watch.bin"
    }
  ],
  "images": [
    {
      "uri": "textures/watch_baseColor.png"
    },
    {
      "uri": "textures/watch_metallicRoughness.png"
    },
    {
      "uri": "textures/watch_normal.png"
    }
  ],
  "materials": [
    {
      "doubleSided": true,
      "name": "watch",
      "normalTexture": {
        "index": 2
      },
      "occlusionTexture": {
        "index": 1
      },
      "pbrMetallicRoughness": {
        "baseColorTexture": {
          "index": 0
        },
        "metallicRoughnessTexture": {
          "index": 1
        }
      }
    },
    {
      "alphaMode": "BLEND",
      "doubleSided": true,
      "name": "glass",
      "pbrMetallicRoughness": {
        "baseColorFactor": [
          1.0,
          1.0,
          1.0,
          0.0199505682
        ],
        "roughnessFactor": 0.0
      }
    }
  ],
  "meshes": [
    {
      "name": "with_uv_Object003_watch_0",
      "primitives": [
        {
          "attributes": {
            "NORMAL": 1,
            "POSITION": 0,
            "TANGENT": 2,
            "TEXCOORD_0": 3
          },
          "indices": 4,
          "material": 0,
          "mode": 4
        }
      ]
    },
    {
      "name": "Hand 1_watch_0",
      "primitives": [
        {
          "attributes": {
            "NORMAL": 6,
            "POSITION": 5,
            "TANGENT": 7,
            "TEXCOORD_0": 8
          },
          "indices": 9,
          "material": 0,
          "mode": 4
        }
      ]
    },
    {
      "name": "Object001_watch_0",
      "primitives": [
        {
          "attributes": {
            "NORMAL": 11,
            "POSITION": 10,
            "TANGENT": 12,
            "TEXCOORD_0": 13
          },
          "indices": 14,
          "material": 0,
          "mode": 4
        }
      ]
    },
    {
      "name": "Box001_glass_0",
      "primitives": [
        {
          "attributes": {
            "NORMAL": 16,
            "POSITION": 15,
            "TEXCOORD_0": 17
          },
          "indices": 18,
          "material": 1,
          "mode": 4
        }
      ]
    },
    {
      "name": "Object002_watch_0",
      "primitives": [
        {
          "attributes": {
            "NORMAL": 20,
            "POSITION": 19,
            "TANGENT": 21,
            "TEXCOORD_0": 22
          },
          "indices": 23,
          "material": 0,
          "mode": 4
        }
      ]
    },
    {
      "name": "Object003_watch_0",
      "primitives": [
        {
          "attributes": {
            "NORMAL": 25,
            "POSITION": 24,
            "TANGENT": 26,
            "TEXCOORD_0": 27
          },
          "indices": 28,
          "material": 0,
          "mode": 4
        }
      ]
    }
  ],
  "nodes": [
    {
      "children": [
        1
      ],
      "matrix": [
        1.0,
        0.0,
        0.0,
        0.0,
        0.0,
        2.220446049250313e-16,
        -1.0,
        0.0,
        0.0,
        1.0,
        2.220446049250313e-16,
        0.0,
        0.0,
        0.0,
        0.0,
        1.0
      ],
      "name": "Sketchfab_model"
    },
    {
      "children": [
        2
      ],
      "matrix": [
        0.009999999776482582,
        0.0,
        0.0,
        0.0,
        0.0,
        0.0,
        0.009999999776482582,
        0.0,
        0.0,
        -0.009999999776482582,
        0.0,
        0.0,
        0.0,
        0.0,
        0.0,
        1.0
      ],
      "name": "b44e98d5817c4b13ac462b975d844cc8.fbx"
    },
    {
      "children": [
        3,
        5,
        7,
        9,
        11,
        13
      ],
      "name": "RootNode"
    },
    {
      "children": [
        4
      ],
      "matrix": [
        2.5399999618530273,
        0.0,
        0.0,
        0.0,
        0.0,
        5.6399328803925005e-16,
        -2.5399999618530273,
        0.0,
        0.0,
        2.5399999618530273,
        5.6399328803925005e-16,
        0.0,
        0.0,
        0.0,
        0.0,
        1.0
      ],
      "name": "with_uv_Object003"
    },
    {
      "mesh": 0,
      "name": "with_uv_Object003_watch_0"
    },
    {
      "children": [
        6
      ],
      "matrix": [
        2.5399999618530273,
        0.0,
        0.0,
        0.0,
        0.0,
        5.6399328803925005e-16,
        -2.5399999618530273,
        0.0,
        0.0,
        2.5399999618530273,
        5.6399328803925005e-16,
        0.0,
        0.0,
        0.0,
        0.0,
        1.0
      ],
      "name": "Hand 1"
    },
    {
      "mesh": 1,
      "name": "Hand 1_watch_0"
    },
    {
      "children": [
        8
      ],
      "matrix": [
        2.5399999618530273,
        0.0,
        0.0,
        0.0,
        0.0,
        5.6399328803925005e-16,
        -2.5399999618530273,
        0.0,
        0.0,
        2.5399999618530273,
        5.6399328803925005e-16,
        0.0,
        0.0,
        -2.350988701644575e-38,
        3.0379690088011557e-06,
        1.0
      ],
      "name": "Object001"
    },
    {
      "mesh": 2,
      "name": "Object001_watch_0"
    },
    {
      "children": [
        10
      ],
      "matrix": [
        2.5399999618530273,
        0.0,
        0.0,
        0.0,
        0.0,
        5.6399328803925005e-16,
        -2.5399999618530273,
        0.0,
        0.0,
        2.5399999618530273,
        5.6399328803925005e-16,
        0.0,
        0.0,
        -3.944304526105059e-31,
        42.92629623413086,
        1.0
      ],
      "name": "Box001"
    },
    {
      "mesh": 3,
      "name": "Box001_glass_0"
    },
    {
      "children": [
        12
      ],
      "matrix": [
        2.5399999618530273,
        0.0,
        0.0,
        0.0,
        0.0,
        5.6399328803925005e-16,
        -2.5399999618530273,
        0.0,
        0.0,
        2.5399999618530273,
        5.6399328803925005e-16,
        0.0,
        0.0,
        0.0,
        0.0,
        1.0
      ],
      "name": "Object002"
    },
    {
      "mesh": 4,
      "name": "Object002_watch_0"
    },
    {
      "children": [
        14
      ],
      "matrix": [
        2.5399999618530273,
        0.0,
        0.0,
        0.0,
        0.0,
        5.6399328803925005e-16,
        -2.5399999618530273,
        0.0,
        0.0,
        2.5399999618530273,
        5.6399328803925005e-16,
        0.0,
        0.0,
        0.0,
        0.0,
        1.0
      ],
      "name": "Object003"
    },
    {
      "mesh": 5,
      "name": "Object003_watch_0"
    }
  ],
  "samplers": [
    {
      "magFilter": 9729,
      "minFilter": 9987,
      "wrapS": 10497,
      "wrapT": 10497
    }
  ],
  "scene": 0,
  "scenes": [
    {
      "name": "Sketchfab_Scene",
      "nodes": [
        0
      ]
    }
  ],
  "textures": [
    {
      "sampler": 0,
      "source": 0
    },
    {
      "sampler": 0,
      "source": 1
    },
    {
      "sampler": 0,
      "source": 2
    }
  ]
}
